<svg width="21" height="21" viewBox="0 0 21 21" fill="none" xmlns="http://www.w3.org/2000/svg">
<g clip-path="url(#clip0_1599_27)">
<mask id="mask0_1599_27" style="mask-type:luminance" maskUnits="userSpaceOnUse" x="0" y="0" width="21" height="21">
<path d="M21 0H0V21H21V0Z" fill="white"></path>
</mask>
<g mask="url(#mask0_1599_27)">
<mask id="mask1_1599_27" style="mask-type:luminance" maskUnits="userSpaceOnUse" x="0" y="0" width="21" height="21">
<path d="M21 0H0V21H21V0Z" fill="white"></path>
</mask>
<g mask="url(#mask1_1599_27)">
<mask id="mask2_1599_27" style="mask-type:luminance" maskUnits="userSpaceOnUse" x="0" y="0" width="21" height="21">
<path d="M21 0H0V21H21V0Z" fill="white"></path>
</mask>
<g mask="url(#mask2_1599_27)">
<path d="M0 10.5C0 4.70101 4.70101 0 10.5 0C16.299 0 21 4.70101 21 10.5C21 16.299 16.299 21 10.5 21C4.70101 21 0 16.299 0 10.5Z" fill="#61C454"></path>
<path d="M15 8L8.8125 14L6 11.2727" stroke="white" strokeWidth="2" strokeLinecap="round" strokeLinejoin="round"></path>
</g>
</g>
</g>
</g>
<defs>
<clipPath id="clip0_1599_27">
<rect width="21" height="21" fill="white"></rect>
</clipPath>
</defs>
</svg>